<?xml version="1.0" encoding="UTF-8" standalone="no"?>
<!DOCTYPE svg PUBLIC "-//W3C//DTD SVG 1.1//EN"
 "http://www.w3.org/Graphics/SVG/1.1/DTD/svg11.dtd">
<!-- Generated by graphviz version 2.47.3 (20210619.1520)
 -->
<!-- Title: dependencies Pages: 1 -->
<svg width="2273pt" height="247pt"
 viewBox="0.00 0.00 2273.00 246.80" xmlns="http://www.w3.org/2000/svg" xmlns:xlink="http://www.w3.org/1999/xlink">
<g id="graph0" class="graph" transform="scale(1 1) rotate(0) translate(4 242.8)">
<title>dependencies</title>
<polygon fill="white" stroke="transparent" points="-4,4 -4,-242.8 2269,-242.8 2269,4 -4,4"/>
<text text-anchor="middle" x="1132.5" y="-8.2" font-family="sans-serif" font-size="14.00">dependencies</text>
<g id="clust1" class="cluster">
<title>cluster_AppModule</title>
<polygon fill="none" stroke="black" stroke-dasharray="1,5" points="8,-32.8 8,-230.8 2257,-230.8 2257,-32.8 8,-32.8"/>
</g>
<g id="clust15" class="cluster">
<title>cluster_AppModule_imports</title>
<polygon fill="none" stroke="black" points="2105,-40.8 2105,-92.8 2249,-92.8 2249,-40.8 2105,-40.8"/>
</g>
<g id="clust17" class="cluster">
<title>cluster_AppModule_bootstrap</title>
<polygon fill="none" stroke="black" points="1144,-170.8 1144,-222.8 1268,-222.8 1268,-170.8 1144,-170.8"/>
</g>
<g id="clust2" class="cluster">
<title>cluster_AppModule_declarations</title>
<polygon fill="none" stroke="black" points="16,-40.8 16,-92.8 2097,-92.8 2097,-40.8 16,-40.8"/>
</g>
<!-- AppComponent -->
<g id="node1" class="node">
<title>AppComponent</title>
<polygon fill="#ffffb3" stroke="black" points="2088.94,-84.8 1983.06,-84.8 1983.06,-48.8 2088.94,-48.8 2088.94,-84.8"/>
<text text-anchor="middle" x="2036" y="-62.6" font-family="Times,serif" font-size="14.00">AppComponent</text>
</g>
<!-- AppModule -->
<g id="node13" class="node">
<title>AppModule</title>
<polygon fill="#8dd3c7" stroke="black" points="1247.66,-149.8 1244.66,-153.8 1223.66,-153.8 1220.66,-149.8 1164.34,-149.8 1164.34,-113.8 1247.66,-113.8 1247.66,-149.8"/>
<text text-anchor="middle" x="1206" y="-127.6" font-family="Times,serif" font-size="14.00">AppModule</text>
</g>
<!-- AppComponent&#45;&gt;AppModule -->
<g id="edge1" class="edge">
<title>AppComponent&#45;&gt;AppModule</title>
<path fill="none" stroke="black" d="M2036,-84.84C2036,-106.46 2036,-139.8 2036,-139.8 2036,-139.8 1257.73,-139.8 1257.73,-139.8"/>
<polygon fill="black" stroke="black" points="1257.73,-136.3 1247.73,-139.8 1257.73,-143.3 1257.73,-136.3"/>
</g>
<!-- EditUserProfileComponent -->
<g id="node2" class="node">
<title>EditUserProfileComponent</title>
<polygon fill="#ffffb3" stroke="black" points="1965.69,-84.8 1796.31,-84.8 1796.31,-48.8 1965.69,-48.8 1965.69,-84.8"/>
<text text-anchor="middle" x="1881" y="-62.6" font-family="Times,serif" font-size="14.00">EditUserProfileComponent</text>
</g>
<!-- EditUserProfileComponent&#45;&gt;AppModule -->
<g id="edge2" class="edge">
<title>EditUserProfileComponent&#45;&gt;AppModule</title>
<path fill="none" stroke="black" d="M1881,-85.02C1881,-105.17 1881,-134.8 1881,-134.8 1881,-134.8 1257.71,-134.8 1257.71,-134.8"/>
<polygon fill="black" stroke="black" points="1257.71,-131.3 1247.71,-134.8 1257.71,-138.3 1257.71,-131.3"/>
</g>
<!-- FavoritesComponent -->
<g id="node3" class="node">
<title>FavoritesComponent</title>
<polygon fill="#ffffb3" stroke="black" points="1778.93,-84.8 1645.07,-84.8 1645.07,-48.8 1778.93,-48.8 1778.93,-84.8"/>
<text text-anchor="middle" x="1712" y="-62.6" font-family="Times,serif" font-size="14.00">FavoritesComponent</text>
</g>
<!-- FavoritesComponent&#45;&gt;AppModule -->
<g id="edge3" class="edge">
<title>FavoritesComponent&#45;&gt;AppModule</title>
<path fill="none" stroke="black" d="M1712,-85.02C1712,-103.63 1712,-129.8 1712,-129.8 1712,-129.8 1257.84,-129.8 1257.84,-129.8"/>
<polygon fill="black" stroke="black" points="1257.84,-126.3 1247.84,-129.8 1257.84,-133.3 1257.84,-126.3"/>
</g>
<!-- MovieCardComponent -->
<g id="node4" class="node">
<title>MovieCardComponent</title>
<polygon fill="#ffffb3" stroke="black" points="1627.59,-84.8 1482.41,-84.8 1482.41,-48.8 1627.59,-48.8 1627.59,-84.8"/>
<text text-anchor="middle" x="1555" y="-62.6" font-family="Times,serif" font-size="14.00">MovieCardComponent</text>
</g>
<!-- MovieCardComponent&#45;&gt;AppModule -->
<g id="edge4" class="edge">
<title>MovieCardComponent&#45;&gt;AppModule</title>
<path fill="none" stroke="black" d="M1555,-84.83C1555,-101.86 1555,-124.8 1555,-124.8 1555,-124.8 1257.75,-124.8 1257.75,-124.8"/>
<polygon fill="black" stroke="black" points="1257.75,-121.3 1247.75,-124.8 1257.75,-128.3 1257.75,-121.3"/>
</g>
<!-- MovieDirectorComponent -->
<g id="node5" class="node">
<title>MovieDirectorComponent</title>
<polygon fill="#ffffb3" stroke="black" points="1464.02,-84.8 1299.98,-84.8 1299.98,-48.8 1464.02,-48.8 1464.02,-84.8"/>
<text text-anchor="middle" x="1382" y="-62.6" font-family="Times,serif" font-size="14.00">MovieDirectorComponent</text>
</g>
<!-- MovieDirectorComponent&#45;&gt;AppModule -->
<g id="edge5" class="edge">
<title>MovieDirectorComponent&#45;&gt;AppModule</title>
<path fill="none" stroke="black" d="M1382,-85.04C1382,-100.37 1382,-119.8 1382,-119.8 1382,-119.8 1257.71,-119.8 1257.71,-119.8"/>
<polygon fill="black" stroke="black" points="1257.71,-116.3 1247.71,-119.8 1257.71,-123.3 1257.71,-116.3"/>
</g>
<!-- MovieGenreComponent -->
<g id="node6" class="node">
<title>MovieGenreComponent</title>
<polygon fill="#ffffb3" stroke="black" points="1282.08,-84.8 1129.92,-84.8 1129.92,-48.8 1282.08,-48.8 1282.08,-84.8"/>
<text text-anchor="middle" x="1206" y="-62.6" font-family="Times,serif" font-size="14.00">MovieGenreComponent</text>
</g>
<!-- MovieGenreComponent&#45;&gt;AppModule -->
<g id="edge6" class="edge">
<title>MovieGenreComponent&#45;&gt;AppModule</title>
<path fill="none" stroke="black" d="M1206,-84.91C1206,-84.91 1206,-103.79 1206,-103.79"/>
<polygon fill="black" stroke="black" points="1202.5,-103.79 1206,-113.79 1209.5,-103.79 1202.5,-103.79"/>
</g>
<!-- MovieViewComponent -->
<g id="node7" class="node">
<title>MovieViewComponent</title>
<polygon fill="#ffffb3" stroke="black" points="1112.2,-84.8 963.8,-84.8 963.8,-48.8 1112.2,-48.8 1112.2,-84.8"/>
<text text-anchor="middle" x="1038" y="-62.6" font-family="Times,serif" font-size="14.00">MovieViewComponent</text>
</g>
<!-- MovieViewComponent&#45;&gt;AppModule -->
<g id="edge7" class="edge">
<title>MovieViewComponent&#45;&gt;AppModule</title>
<path fill="none" stroke="black" d="M1038,-85.04C1038,-100.37 1038,-119.8 1038,-119.8 1038,-119.8 1154.04,-119.8 1154.04,-119.8"/>
<polygon fill="black" stroke="black" points="1154.04,-123.3 1164.04,-119.8 1154.04,-116.3 1154.04,-123.3"/>
</g>
<!-- NavigationBarComponent -->
<g id="node8" class="node">
<title>NavigationBarComponent</title>
<polygon fill="#ffffb3" stroke="black" points="945.75,-84.8 782.25,-84.8 782.25,-48.8 945.75,-48.8 945.75,-84.8"/>
<text text-anchor="middle" x="864" y="-62.6" font-family="Times,serif" font-size="14.00">NavigationBarComponent</text>
</g>
<!-- NavigationBarComponent&#45;&gt;AppModule -->
<g id="edge8" class="edge">
<title>NavigationBarComponent&#45;&gt;AppModule</title>
<path fill="none" stroke="black" d="M864,-84.83C864,-101.86 864,-124.8 864,-124.8 864,-124.8 1154.06,-124.8 1154.06,-124.8"/>
<polygon fill="black" stroke="black" points="1154.06,-128.3 1164.06,-124.8 1154.06,-121.3 1154.06,-128.3"/>
</g>
<!-- UserLoginFormComponent -->
<g id="node9" class="node">
<title>UserLoginFormComponent</title>
<polygon fill="#ffffb3" stroke="black" points="763.54,-84.8 592.46,-84.8 592.46,-48.8 763.54,-48.8 763.54,-84.8"/>
<text text-anchor="middle" x="678" y="-62.6" font-family="Times,serif" font-size="14.00">UserLoginFormComponent</text>
</g>
<!-- UserLoginFormComponent&#45;&gt;AppModule -->
<g id="edge9" class="edge">
<title>UserLoginFormComponent&#45;&gt;AppModule</title>
<path fill="none" stroke="black" d="M678,-85.02C678,-103.63 678,-129.8 678,-129.8 678,-129.8 1154.13,-129.8 1154.13,-129.8"/>
<polygon fill="black" stroke="black" points="1154.13,-133.3 1164.13,-129.8 1154.13,-126.3 1154.13,-133.3"/>
</g>
<!-- UserProfileComponent -->
<g id="node10" class="node">
<title>UserProfileComponent</title>
<polygon fill="#ffffb3" stroke="black" points="573.86,-84.8 428.14,-84.8 428.14,-48.8 573.86,-48.8 573.86,-84.8"/>
<text text-anchor="middle" x="501" y="-62.6" font-family="Times,serif" font-size="14.00">UserProfileComponent</text>
</g>
<!-- UserProfileComponent&#45;&gt;AppModule -->
<g id="edge10" class="edge">
<title>UserProfileComponent&#45;&gt;AppModule</title>
<path fill="none" stroke="black" d="M501,-85.02C501,-105.17 501,-134.8 501,-134.8 501,-134.8 1154.27,-134.8 1154.27,-134.8"/>
<polygon fill="black" stroke="black" points="1154.27,-138.3 1164.27,-134.8 1154.27,-131.3 1154.27,-138.3"/>
</g>
<!-- UserRegistrationFormComponent -->
<g id="node11" class="node">
<title>UserRegistrationFormComponent</title>
<polygon fill="#ffffb3" stroke="black" points="410.03,-84.8 203.97,-84.8 203.97,-48.8 410.03,-48.8 410.03,-84.8"/>
<text text-anchor="middle" x="307" y="-62.6" font-family="Times,serif" font-size="14.00">UserRegistrationFormComponent</text>
</g>
<!-- UserRegistrationFormComponent&#45;&gt;AppModule -->
<g id="edge11" class="edge">
<title>UserRegistrationFormComponent&#45;&gt;AppModule</title>
<path fill="none" stroke="black" d="M307,-84.84C307,-106.46 307,-139.8 307,-139.8 307,-139.8 1154.14,-139.8 1154.14,-139.8"/>
<polygon fill="black" stroke="black" points="1154.14,-143.3 1164.14,-139.8 1154.14,-136.3 1154.14,-143.3"/>
</g>
<!-- WelcomePageComponent -->
<g id="node12" class="node">
<title>WelcomePageComponent</title>
<polygon fill="#ffffb3" stroke="black" points="186.18,-84.8 23.82,-84.8 23.82,-48.8 186.18,-48.8 186.18,-84.8"/>
<text text-anchor="middle" x="105" y="-62.6" font-family="Times,serif" font-size="14.00">WelcomePageComponent</text>
</g>
<!-- WelcomePageComponent&#45;&gt;AppModule -->
<g id="edge12" class="edge">
<title>WelcomePageComponent&#45;&gt;AppModule</title>
<path fill="none" stroke="black" d="M105,-84.89C105,-107.93 105,-144.8 105,-144.8 105,-144.8 1154.18,-144.8 1154.18,-144.8"/>
<polygon fill="black" stroke="black" points="1154.18,-148.3 1164.18,-144.8 1154.18,-141.3 1154.18,-148.3"/>
</g>
<!-- AppComponent  -->
<g id="node15" class="node">
<title>AppComponent </title>
<polygon fill="#80b1d3" stroke="black" points="1260.44,-214.8 1151.56,-214.8 1151.56,-178.8 1260.44,-178.8 1260.44,-214.8"/>
<text text-anchor="middle" x="1206" y="-192.6" font-family="Times,serif" font-size="14.00">AppComponent </text>
</g>
<!-- AppModule&#45;&gt;AppComponent  -->
<g id="edge14" class="edge">
<title>AppModule&#45;&gt;AppComponent </title>
<path fill="none" stroke="black" stroke-dasharray="1,5" d="M1206,-149.91C1206,-149.91 1206,-168.79 1206,-168.79"/>
<polygon fill="black" stroke="black" points="1202.5,-168.79 1206,-178.79 1209.5,-168.79 1202.5,-168.79"/>
</g>
<!-- AppRoutingModule -->
<g id="node14" class="node">
<title>AppRoutingModule</title>
<polygon fill="#8dd3c7" stroke="black" points="2241.27,-84.8 2238.27,-88.8 2217.27,-88.8 2214.27,-84.8 2112.73,-84.8 2112.73,-48.8 2241.27,-48.8 2241.27,-84.8"/>
<text text-anchor="middle" x="2177" y="-62.6" font-family="Times,serif" font-size="14.00">AppRoutingModule</text>
</g>
<!-- AppRoutingModule&#45;&gt;AppModule -->
<g id="edge13" class="edge">
<title>AppRoutingModule&#45;&gt;AppModule</title>
<path fill="none" stroke="black" d="M2177,-84.89C2177,-107.93 2177,-144.8 2177,-144.8 2177,-144.8 1257.72,-144.8 1257.72,-144.8"/>
<polygon fill="black" stroke="black" points="1257.72,-141.3 1247.72,-144.8 1257.72,-148.3 1257.72,-141.3"/>
</g>
</g>
</svg>
