<?xml version="1.0" encoding="UTF-8" standalone="no"?>
<!DOCTYPE svg PUBLIC "-//W3C//DTD SVG 1.1//EN"
 "http://www.w3.org/Graphics/SVG/1.1/DTD/svg11.dtd">
<!-- Generated by graphviz version 2.47.3 (20210619.1520)
 -->
<!-- Title: dependencies Pages: 1 -->
<svg width="2273pt" height="247pt"
 viewBox="0.00 0.00 2273.00 246.80" xmlns="http://www.w3.org/2000/svg" xmlns:xlink="http://www.w3.org/1999/xlink">
<g id="graph0" class="graph" transform="scale(1 1) rotate(0) translate(4 242.8)">
<title>dependencies</title>
<polygon fill="white" stroke="transparent" points="-4,4 -4,-242.8 2269,-242.8 2269,4 -4,4"/>
<text text-anchor="middle" x="1132.5" y="-8.2" font-family="sans-serif" font-size="14.00">dependencies</text>
<g id="clust1" class="cluster">
<title>cluster_AppModule</title>
<polygon fill="none" stroke="black" stroke-dasharray="1,5" points="8,-32.8 8,-230.8 2257,-230.8 2257,-32.8 8,-32.8"/>
</g>
<g id="clust2" class="cluster">
<title>cluster_AppModule_declarations</title>
<polygon fill="none" stroke="black" points="168,-40.8 168,-92.8 2249,-92.8 2249,-40.8 168,-40.8"/>
</g>
<g id="clust15" class="cluster">
<title>cluster_AppModule_imports</title>
<polygon fill="none" stroke="black" points="16,-40.8 16,-92.8 160,-92.8 160,-40.8 16,-40.8"/>
</g>
<g id="clust17" class="cluster">
<title>cluster_AppModule_bootstrap</title>
<polygon fill="none" stroke="black" points="1128,-170.8 1128,-222.8 1252,-222.8 1252,-170.8 1128,-170.8"/>
</g>
<!-- AppComponent -->
<g id="node1" class="node">
<title>AppComponent</title>
<polygon fill="#ffffb3" stroke="black" points="2240.94,-84.8 2135.06,-84.8 2135.06,-48.8 2240.94,-48.8 2240.94,-84.8"/>
<text text-anchor="middle" x="2188" y="-62.6" font-family="Times,serif" font-size="14.00">AppComponent</text>
</g>
<!-- AppModule -->
<g id="node13" class="node">
<title>AppModule</title>
<polygon fill="#8dd3c7" stroke="black" points="1231.66,-149.8 1228.66,-153.8 1207.66,-153.8 1204.66,-149.8 1148.34,-149.8 1148.34,-113.8 1231.66,-113.8 1231.66,-149.8"/>
<text text-anchor="middle" x="1190" y="-127.6" font-family="Times,serif" font-size="14.00">AppModule</text>
</g>
<!-- AppComponent&#45;&gt;AppModule -->
<g id="edge1" class="edge">
<title>AppComponent&#45;&gt;AppModule</title>
<path fill="none" stroke="black" d="M2188,-84.89C2188,-107.93 2188,-144.8 2188,-144.8 2188,-144.8 1241.93,-144.8 1241.93,-144.8"/>
<polygon fill="black" stroke="black" points="1241.93,-141.3 1231.93,-144.8 1241.93,-148.3 1241.93,-141.3"/>
</g>
<!-- EditUserProfileComponent -->
<g id="node2" class="node">
<title>EditUserProfileComponent</title>
<polygon fill="#ffffb3" stroke="black" points="2117.69,-84.8 1948.31,-84.8 1948.31,-48.8 2117.69,-48.8 2117.69,-84.8"/>
<text text-anchor="middle" x="2033" y="-62.6" font-family="Times,serif" font-size="14.00">EditUserProfileComponent</text>
</g>
<!-- EditUserProfileComponent&#45;&gt;AppModule -->
<g id="edge2" class="edge">
<title>EditUserProfileComponent&#45;&gt;AppModule</title>
<path fill="none" stroke="black" d="M2033,-84.84C2033,-106.46 2033,-139.8 2033,-139.8 2033,-139.8 1241.8,-139.8 1241.8,-139.8"/>
<polygon fill="black" stroke="black" points="1241.8,-136.3 1231.8,-139.8 1241.8,-143.3 1241.8,-136.3"/>
</g>
<!-- FavoritesComponent -->
<g id="node3" class="node">
<title>FavoritesComponent</title>
<polygon fill="#ffffb3" stroke="black" points="1930.93,-84.8 1797.07,-84.8 1797.07,-48.8 1930.93,-48.8 1930.93,-84.8"/>
<text text-anchor="middle" x="1864" y="-62.6" font-family="Times,serif" font-size="14.00">FavoritesComponent</text>
</g>
<!-- FavoritesComponent&#45;&gt;AppModule -->
<g id="edge3" class="edge">
<title>FavoritesComponent&#45;&gt;AppModule</title>
<path fill="none" stroke="black" d="M1864,-85.02C1864,-105.17 1864,-134.8 1864,-134.8 1864,-134.8 1241.91,-134.8 1241.91,-134.8"/>
<polygon fill="black" stroke="black" points="1241.91,-131.3 1231.91,-134.8 1241.91,-138.3 1241.91,-131.3"/>
</g>
<!-- MovieCardComponent -->
<g id="node4" class="node">
<title>MovieCardComponent</title>
<polygon fill="#ffffb3" stroke="black" points="1779.59,-84.8 1634.41,-84.8 1634.41,-48.8 1779.59,-48.8 1779.59,-84.8"/>
<text text-anchor="middle" x="1707" y="-62.6" font-family="Times,serif" font-size="14.00">MovieCardComponent</text>
</g>
<!-- MovieCardComponent&#45;&gt;AppModule -->
<g id="edge4" class="edge">
<title>MovieCardComponent&#45;&gt;AppModule</title>
<path fill="none" stroke="black" d="M1707,-85.02C1707,-103.63 1707,-129.8 1707,-129.8 1707,-129.8 1241.87,-129.8 1241.87,-129.8"/>
<polygon fill="black" stroke="black" points="1241.87,-126.3 1231.87,-129.8 1241.87,-133.3 1241.87,-126.3"/>
</g>
<!-- MovieDirectorComponent -->
<g id="node5" class="node">
<title>MovieDirectorComponent</title>
<polygon fill="#ffffb3" stroke="black" points="1616.02,-84.8 1451.98,-84.8 1451.98,-48.8 1616.02,-48.8 1616.02,-84.8"/>
<text text-anchor="middle" x="1534" y="-62.6" font-family="Times,serif" font-size="14.00">MovieDirectorComponent</text>
</g>
<!-- MovieDirectorComponent&#45;&gt;AppModule -->
<g id="edge5" class="edge">
<title>MovieDirectorComponent&#45;&gt;AppModule</title>
<path fill="none" stroke="black" d="M1534,-84.83C1534,-101.86 1534,-124.8 1534,-124.8 1534,-124.8 1241.84,-124.8 1241.84,-124.8"/>
<polygon fill="black" stroke="black" points="1241.84,-121.3 1231.84,-124.8 1241.84,-128.3 1241.84,-121.3"/>
</g>
<!-- MovieGenreComponent -->
<g id="node6" class="node">
<title>MovieGenreComponent</title>
<polygon fill="#ffffb3" stroke="black" points="1434.08,-84.8 1281.92,-84.8 1281.92,-48.8 1434.08,-48.8 1434.08,-84.8"/>
<text text-anchor="middle" x="1358" y="-62.6" font-family="Times,serif" font-size="14.00">MovieGenreComponent</text>
</g>
<!-- MovieGenreComponent&#45;&gt;AppModule -->
<g id="edge6" class="edge">
<title>MovieGenreComponent&#45;&gt;AppModule</title>
<path fill="none" stroke="black" d="M1358,-85.04C1358,-100.37 1358,-119.8 1358,-119.8 1358,-119.8 1241.96,-119.8 1241.96,-119.8"/>
<polygon fill="black" stroke="black" points="1241.96,-116.3 1231.96,-119.8 1241.96,-123.3 1241.96,-116.3"/>
</g>
<!-- MovieViewComponent -->
<g id="node7" class="node">
<title>MovieViewComponent</title>
<polygon fill="#ffffb3" stroke="black" points="1264.2,-84.8 1115.8,-84.8 1115.8,-48.8 1264.2,-48.8 1264.2,-84.8"/>
<text text-anchor="middle" x="1190" y="-62.6" font-family="Times,serif" font-size="14.00">MovieViewComponent</text>
</g>
<!-- MovieViewComponent&#45;&gt;AppModule -->
<g id="edge7" class="edge">
<title>MovieViewComponent&#45;&gt;AppModule</title>
<path fill="none" stroke="black" d="M1190,-84.91C1190,-84.91 1190,-103.79 1190,-103.79"/>
<polygon fill="black" stroke="black" points="1186.5,-103.79 1190,-113.79 1193.5,-103.79 1186.5,-103.79"/>
</g>
<!-- NavigationBarComponent -->
<g id="node8" class="node">
<title>NavigationBarComponent</title>
<polygon fill="#ffffb3" stroke="black" points="1097.75,-84.8 934.25,-84.8 934.25,-48.8 1097.75,-48.8 1097.75,-84.8"/>
<text text-anchor="middle" x="1016" y="-62.6" font-family="Times,serif" font-size="14.00">NavigationBarComponent</text>
</g>
<!-- NavigationBarComponent&#45;&gt;AppModule -->
<g id="edge8" class="edge">
<title>NavigationBarComponent&#45;&gt;AppModule</title>
<path fill="none" stroke="black" d="M1016,-85.04C1016,-100.37 1016,-119.8 1016,-119.8 1016,-119.8 1138.32,-119.8 1138.32,-119.8"/>
<polygon fill="black" stroke="black" points="1138.32,-123.3 1148.32,-119.8 1138.32,-116.3 1138.32,-123.3"/>
</g>
<!-- UserLoginFormComponent -->
<g id="node9" class="node">
<title>UserLoginFormComponent</title>
<polygon fill="#ffffb3" stroke="black" points="915.54,-84.8 744.46,-84.8 744.46,-48.8 915.54,-48.8 915.54,-84.8"/>
<text text-anchor="middle" x="830" y="-62.6" font-family="Times,serif" font-size="14.00">UserLoginFormComponent</text>
</g>
<!-- UserLoginFormComponent&#45;&gt;AppModule -->
<g id="edge9" class="edge">
<title>UserLoginFormComponent&#45;&gt;AppModule</title>
<path fill="none" stroke="black" d="M830,-84.83C830,-101.86 830,-124.8 830,-124.8 830,-124.8 1138,-124.8 1138,-124.8"/>
<polygon fill="black" stroke="black" points="1138,-128.3 1148,-124.8 1138,-121.3 1138,-128.3"/>
</g>
<!-- UserProfileComponent -->
<g id="node10" class="node">
<title>UserProfileComponent</title>
<polygon fill="#ffffb3" stroke="black" points="725.86,-84.8 580.14,-84.8 580.14,-48.8 725.86,-48.8 725.86,-84.8"/>
<text text-anchor="middle" x="653" y="-62.6" font-family="Times,serif" font-size="14.00">UserProfileComponent</text>
</g>
<!-- UserProfileComponent&#45;&gt;AppModule -->
<g id="edge10" class="edge">
<title>UserProfileComponent&#45;&gt;AppModule</title>
<path fill="none" stroke="black" d="M653,-85.02C653,-103.63 653,-129.8 653,-129.8 653,-129.8 1138.31,-129.8 1138.31,-129.8"/>
<polygon fill="black" stroke="black" points="1138.31,-133.3 1148.31,-129.8 1138.31,-126.3 1138.31,-133.3"/>
</g>
<!-- UserRegistrationFormComponent -->
<g id="node11" class="node">
<title>UserRegistrationFormComponent</title>
<polygon fill="#ffffb3" stroke="black" points="562.03,-84.8 355.97,-84.8 355.97,-48.8 562.03,-48.8 562.03,-84.8"/>
<text text-anchor="middle" x="459" y="-62.6" font-family="Times,serif" font-size="14.00">UserRegistrationFormComponent</text>
</g>
<!-- UserRegistrationFormComponent&#45;&gt;AppModule -->
<g id="edge11" class="edge">
<title>UserRegistrationFormComponent&#45;&gt;AppModule</title>
<path fill="none" stroke="black" d="M459,-85.02C459,-105.17 459,-134.8 459,-134.8 459,-134.8 1138.34,-134.8 1138.34,-134.8"/>
<polygon fill="black" stroke="black" points="1138.34,-138.3 1148.34,-134.8 1138.34,-131.3 1138.34,-138.3"/>
</g>
<!-- WelcomePageComponent -->
<g id="node12" class="node">
<title>WelcomePageComponent</title>
<polygon fill="#ffffb3" stroke="black" points="338.18,-84.8 175.82,-84.8 175.82,-48.8 338.18,-48.8 338.18,-84.8"/>
<text text-anchor="middle" x="257" y="-62.6" font-family="Times,serif" font-size="14.00">WelcomePageComponent</text>
</g>
<!-- WelcomePageComponent&#45;&gt;AppModule -->
<g id="edge12" class="edge">
<title>WelcomePageComponent&#45;&gt;AppModule</title>
<path fill="none" stroke="black" d="M257,-84.84C257,-106.46 257,-139.8 257,-139.8 257,-139.8 1138.1,-139.8 1138.1,-139.8"/>
<polygon fill="black" stroke="black" points="1138.1,-143.3 1148.1,-139.8 1138.1,-136.3 1138.1,-143.3"/>
</g>
<!-- AppComponent  -->
<g id="node15" class="node">
<title>AppComponent </title>
<polygon fill="#80b1d3" stroke="black" points="1244.44,-214.8 1135.56,-214.8 1135.56,-178.8 1244.44,-178.8 1244.44,-214.8"/>
<text text-anchor="middle" x="1190" y="-192.6" font-family="Times,serif" font-size="14.00">AppComponent </text>
</g>
<!-- AppModule&#45;&gt;AppComponent  -->
<g id="edge14" class="edge">
<title>AppModule&#45;&gt;AppComponent </title>
<path fill="none" stroke="black" stroke-dasharray="1,5" d="M1190,-149.91C1190,-149.91 1190,-168.79 1190,-168.79"/>
<polygon fill="black" stroke="black" points="1186.5,-168.79 1190,-178.79 1193.5,-168.79 1186.5,-168.79"/>
</g>
<!-- AppRoutingModule -->
<g id="node14" class="node">
<title>AppRoutingModule</title>
<polygon fill="#8dd3c7" stroke="black" points="152.27,-84.8 149.27,-88.8 128.27,-88.8 125.27,-84.8 23.73,-84.8 23.73,-48.8 152.27,-48.8 152.27,-84.8"/>
<text text-anchor="middle" x="88" y="-62.6" font-family="Times,serif" font-size="14.00">AppRoutingModule</text>
</g>
<!-- AppRoutingModule&#45;&gt;AppModule -->
<g id="edge13" class="edge">
<title>AppRoutingModule&#45;&gt;AppModule</title>
<path fill="none" stroke="black" d="M88,-84.89C88,-107.93 88,-144.8 88,-144.8 88,-144.8 1138.15,-144.8 1138.15,-144.8"/>
<polygon fill="black" stroke="black" points="1138.15,-148.3 1148.15,-144.8 1138.15,-141.3 1138.15,-148.3"/>
</g>
</g>
</svg>
